<svg width="581" height="91" viewBox="0 0 581 91" fill="none" xmlns="http://www.w3.org/2000/svg">
<g filter="url(#filter0_d_79_8)">
<path d="M426.097 46.8513C426.045 48.3487 426.007 50.2582 425.983 52.5799C425.957 54.8501 425.983 57.1442 426.062 59.4624C426.138 61.6775 426.258 63.7106 426.424 65.5616C426.591 67.4126 426.817 68.7716 427.105 69.6386C427.119 70.0507 427.313 70.4567 427.688 70.8565C428.061 71.2049 428.254 71.5851 428.268 71.9972C428.289 72.6154 428.129 73.214 427.788 73.7929C427.498 74.3701 427.102 74.8735 426.601 75.3031C426.152 75.731 425.647 76.0576 425.087 76.2829C424.581 76.558 424.096 76.7035 423.632 76.7192C422.087 76.7718 421.033 75.3636 420.471 72.4945C419.911 69.677 419.531 65.3061 419.329 59.382C419.266 57.5274 419.23 55.6978 419.22 53.893C419.261 52.0865 419.308 50.4345 419.361 48.9371C419.107 49.0489 418.877 49.1083 418.67 49.1153C418.464 49.1223 418.258 49.1293 418.052 49.1363C417.177 49.1661 416.55 48.9553 416.174 48.504C415.847 47.9993 415.675 47.4637 415.655 46.897C415.615 45.7122 415.893 44.8002 416.491 44.161C417.139 43.52 418.255 42.9663 419.838 42.4999C419.988 40.8444 420.143 39.3435 420.304 37.9971C420.462 36.5992 420.65 35.2777 420.865 34.0326C421.081 32.7874 421.323 31.5672 421.591 30.3719C421.912 29.1748 422.308 27.9235 422.779 26.6181C421.816 27.1151 421.007 27.581 420.351 28.0159C419.747 28.449 419.218 28.828 418.765 29.1529C418.312 29.4777 417.909 29.7493 417.555 29.9676C417.2 30.1345 416.79 30.2257 416.326 30.2415C415.554 30.2678 414.874 30.0073 414.288 29.4599C413.703 28.9125 413.397 28.2782 413.373 27.557C413.341 26.6297 413.851 25.6841 414.901 24.72C416.754 23.1097 418.696 21.8317 420.727 20.8858C422.756 19.8885 424.819 19.122 426.915 18.5866C429.012 18.0511 431.063 17.6977 433.068 17.5263C435.123 17.3017 437.053 17.1587 438.856 17.0973C440.453 17.043 442.206 17.0349 444.115 17.0731C446.076 17.1096 447.916 17.3565 449.633 17.8138C451.349 18.2196 452.791 18.9184 453.959 19.9101C455.126 20.8503 455.74 22.2219 455.801 24.025C455.866 25.931 455.463 27.724 454.592 29.404C453.721 31.084 452.536 32.6458 451.038 34.0892C449.54 35.5327 447.781 36.8819 445.76 38.1368C443.791 39.39 441.69 40.5445 439.457 41.6004C437.224 42.6563 434.962 43.6358 432.672 44.5389C430.38 45.3904 428.189 46.1612 426.097 46.8513ZM444.723 23.5508C444.049 23.4706 443.094 23.4257 441.856 23.4163C440.616 23.3553 439.3 23.3485 437.909 23.3958C436.519 23.4431 435.129 23.5419 433.742 23.6923C432.355 23.8426 431.15 24.0641 430.129 24.3567C429.659 25.7136 429.262 26.9134 428.936 27.9559C428.61 28.9985 428.312 30.0917 428.042 31.2355C427.821 32.3261 427.606 33.5712 427.395 34.9708C427.185 36.3705 426.96 38.0801 426.719 40.0997C429.314 39.0831 431.933 37.9883 434.575 36.8154C437.217 35.6424 439.627 34.4516 441.803 33.243C443.978 31.9828 445.741 30.7366 447.091 29.5044C448.442 28.2723 449.097 27.0638 449.057 25.879C449.032 25.1578 448.602 24.6309 447.765 24.2983C446.929 23.9658 445.914 23.7166 444.723 23.5508ZM483.36 69.8137C482.498 70.2556 481.6 70.3636 480.664 70.1375C479.781 69.9613 479.09 69.3659 478.591 68.3514C478.15 67.4896 477.736 66.7043 477.351 65.9954C477.017 65.2847 476.683 64.5482 476.347 63.786C476.065 63.0736 475.783 62.3611 475.501 61.6487C475.27 60.9345 474.95 59.8623 474.541 58.4322L473.734 62.0182C473.503 62.7997 473.195 63.6096 472.811 64.4478C472.427 65.2861 471.964 66.0754 471.422 66.8159C470.93 67.5031 470.357 68.1157 469.705 68.6536C469.053 69.1916 468.395 69.5492 467.73 69.7265C466.089 69.9886 464.657 69.599 463.436 68.5575C462.264 67.4627 461.259 65.9754 460.421 64.0957C459.584 62.2159 458.919 60.0982 458.426 57.7426C457.933 55.3869 457.544 53.0535 457.26 50.7424C456.975 48.4312 456.773 46.2977 456.655 44.3419C456.537 42.3861 456.46 40.8931 456.425 39.8628C456.423 38.2641 456.799 37.194 457.554 36.6526C458.309 36.1112 459.075 35.8788 459.851 35.9556C460.267 36.0446 460.657 36.1345 461.021 36.2252C461.435 36.2627 461.775 36.4316 462.044 36.732C462.361 36.979 462.606 37.3575 462.778 37.8674C463 38.324 463.126 38.9902 463.156 39.8659L463.243 42.4159C463.325 44.8371 463.547 47.563 463.908 50.5936C464.269 53.6242 464.78 56.5207 465.441 59.2832C465.67 59.9459 465.977 60.6317 466.362 61.3407C466.745 61.9981 467.119 62.3722 467.483 62.463C468.166 61.3051 468.74 59.9962 469.206 58.5363C469.722 57.0231 470.134 55.4876 470.442 53.9299C470.8 52.3189 471.081 50.7364 471.286 49.1822C471.543 47.6262 471.776 46.1484 471.986 44.7487C472.212 43.8127 472.389 42.93 472.515 42.1005C472.64 41.2195 472.891 40.2568 473.268 39.2125C473.498 38.3795 473.915 37.7722 474.521 37.3906C475.177 36.9557 475.839 36.7268 476.509 36.704C477.385 36.6743 478.194 36.9562 478.936 37.5498C479.678 38.1435 480.069 39.0069 480.107 40.1403L480.31 46.0902C480.404 48.872 480.682 51.7249 481.142 54.649C481.601 57.5215 482.385 60.0994 483.494 62.3825C483.768 62.8374 484.016 63.3189 484.24 63.827C484.515 64.3334 484.71 64.7651 484.825 65.1222C485.327 66.2398 485.411 67.191 485.077 67.976C484.743 68.761 484.145 69.3744 483.283 69.8164L483.36 69.8137ZM502.391 16.638C502.463 18.7501 502.031 21.2146 501.095 24.0314C500.21 26.795 499.092 29.5664 497.742 32.3458C497.575 33.4861 497.409 34.678 497.245 35.9213C497.131 37.1114 496.964 38.2775 496.745 39.4196C496.355 41.599 496.042 43.7757 495.807 45.9499C495.621 48.0707 495.435 50.1916 495.25 52.3124C495.062 54.3818 495.004 56.4725 495.076 58.5846C495.136 60.3361 495.298 62.0841 495.564 63.8286C495.879 65.5198 496.351 67.2573 496.979 69.041C497.091 69.2951 497.149 69.4736 497.152 69.5767C497.157 69.7312 497.161 69.8342 497.163 69.8857C497.192 70.7615 496.931 71.4151 496.378 71.8465C495.827 72.3294 495.166 72.584 494.393 72.6102C493.208 72.6506 492.236 72.1163 491.476 71.0075C490.718 69.9502 490.132 68.655 489.719 67.1219C489.306 65.5887 489.02 63.9996 488.861 62.3547C488.702 60.7097 488.604 59.3463 488.567 58.2645C488.488 55.9463 488.54 53.6753 488.722 51.4514C488.902 49.176 489.135 46.9246 489.421 44.6972C488.596 44.7253 487.867 44.518 487.233 44.0754C486.599 43.6328 486.266 42.9221 486.232 41.9433C486.218 41.5312 486.259 41.1946 486.353 40.9335C487.222 39.202 488.067 37.4971 488.886 35.8188C489.704 34.0891 490.521 32.3078 491.335 30.475C491.419 29.9048 491.478 29.3613 491.512 28.8444C491.595 28.2742 491.678 27.6783 491.76 27.0566C491.878 25.9696 492.038 24.6232 492.242 23.0175C492.497 21.41 492.857 19.8763 493.323 18.4164C493.787 16.9049 494.414 15.62 495.203 14.5617C496.042 13.4501 497.131 12.8715 498.471 12.826C499.347 12.7962 500.18 13.0515 500.972 13.5918C501.814 14.0789 502.281 14.914 502.373 16.0971L502.391 16.638ZM505.051 73.0213C504.797 73.1331 504.543 73.2449 504.289 73.3567C504.034 73.4685 503.779 73.5288 503.521 73.5375C503.006 73.555 502.563 73.4154 502.192 73.1186C501.874 72.8715 501.605 72.5454 501.385 72.1403C501.166 71.7867 500.999 71.4056 500.882 70.997C500.818 70.6382 500.783 70.3557 500.776 70.1497C500.751 69.4284 500.882 68.7277 501.168 68.0475C501.453 67.3158 501.901 66.8622 502.514 66.6866C503.024 66.5145 503.462 66.4996 503.828 66.6419C504.245 66.7824 504.712 66.8439 505.227 66.8264C505.742 66.8089 506.154 66.7949 506.463 66.7844C506.822 66.7206 507.357 66.5219 508.067 66.1883C508.577 66.0162 509.34 65.7066 510.357 65.2594C511.373 64.8123 512.386 64.2621 513.395 63.6088C514.404 62.9556 515.258 62.2819 515.957 61.5877C516.705 60.8402 517.067 60.1316 517.045 59.4619C517.029 58.9983 516.68 58.5975 515.998 58.2597C515.316 57.9219 514.559 57.6382 513.726 57.4087C512.944 57.1774 512.243 57.0208 511.621 56.9388C510.997 56.8052 510.738 56.7625 510.843 56.8105C509.699 56.54 508.373 56.224 506.865 55.8627C505.409 55.4997 504.024 54.9795 502.712 54.3021C501.4 53.6247 500.261 52.7608 499.297 51.7106C498.385 50.6586 497.9 49.3083 497.844 47.6599C497.773 45.5478 498.38 43.6962 499.667 42.1052C500.952 40.4627 502.504 39.0947 504.324 38.0014C506.195 36.9062 508.152 36.0661 510.195 35.4808C512.238 34.8956 513.955 34.5793 515.346 34.532C516.17 34.5039 517.027 34.6811 517.917 35.0634C518.856 35.3925 519.343 36.0722 519.378 37.1024C519.47 39.7812 518.485 41.1556 516.424 41.2257C516.012 41.2397 515.648 41.149 515.332 40.9534C515.016 40.7579 514.703 40.6654 514.394 40.6759C513.158 40.718 511.902 40.9412 510.626 41.3456C509.402 41.7483 508.285 42.2504 507.274 42.8521C506.314 43.4521 505.537 44.0974 504.941 44.7882C504.346 45.4789 504.059 46.1333 504.08 46.7515C504.097 47.2666 504.346 47.7481 504.825 48.196C505.303 48.5924 505.908 48.9586 506.642 49.2946C507.374 49.5792 508.156 49.8362 508.989 50.0658C509.822 50.2953 510.602 50.4751 511.328 50.6051C512.939 50.9629 514.449 51.3757 515.857 51.8435C517.315 52.2581 518.597 52.7818 519.701 53.4147C520.804 53.9961 521.68 54.7141 522.327 55.5688C522.975 56.4236 523.32 57.4433 523.36 58.6282C523.43 60.6888 522.823 62.5403 521.537 64.1828C520.302 65.7721 518.725 67.1667 516.806 68.3666C514.939 69.5647 512.934 70.5354 510.794 71.2787C508.654 72.0735 506.74 72.6544 505.051 73.0213ZM536.776 68.4609C535.076 68.5187 533.467 68.2382 531.951 67.6193C530.487 67.0502 529.193 66.1401 528.067 64.8891C526.993 63.6362 526.166 62.0656 525.586 60.177C525.006 58.2885 524.749 56.0538 524.816 53.4728C524.89 51.0979 525.377 48.7347 526.277 46.3832C527.227 43.9785 528.443 41.8226 529.925 39.9155C531.406 37.9569 533.131 36.3767 535.102 35.1751C537.071 33.9219 539.188 33.2568 541.455 33.1797C542.691 33.1376 543.756 33.3593 544.649 33.8446C545.543 34.33 546.235 34.9769 546.727 35.7853C547.27 36.5921 547.662 37.507 547.903 38.5303C548.144 39.5536 548.257 40.5813 548.24 41.6133C548.163 43.8852 547.562 45.9428 546.439 47.7861C545.365 49.5762 544 51.1441 542.344 52.4898C540.739 53.8337 538.971 54.9253 537.04 55.7646C535.16 56.6022 533.376 57.2044 531.686 57.5713C532.16 59.3603 532.847 60.6005 533.747 61.2919C534.699 61.9816 535.715 62.308 536.797 62.2712C537.776 62.2379 538.776 62.075 539.798 61.7824C540.871 61.488 541.863 61.0932 542.774 60.598C543.686 60.1029 544.492 59.5339 545.192 58.8912C545.944 58.2468 546.513 57.5569 546.901 56.8217C547.24 56.1913 547.772 55.8895 548.495 55.9165C549.218 55.9435 549.869 56.1534 550.45 56.5462C551.082 56.9373 551.564 57.4625 551.896 58.1216C552.226 58.7293 552.222 59.3484 551.882 59.9788C551.153 61.2929 550.187 62.4604 548.984 63.4813C547.781 64.5021 546.495 65.371 545.127 66.088C543.759 66.805 542.334 67.3692 540.853 67.7807C539.423 68.1903 538.064 68.4171 536.776 68.4609ZM541.436 39.4466C540.354 39.4834 539.285 39.8808 538.227 40.6388C537.168 41.3453 536.169 42.2818 535.229 43.4484C534.34 44.6133 533.559 45.9034 532.885 47.3189C532.209 48.6828 531.714 50.0406 531.399 51.3922C532.475 51.2009 533.624 50.8524 534.844 50.3467C536.115 49.7877 537.303 49.1026 538.41 48.2913C539.517 47.4801 540.439 46.5204 541.175 45.4123C541.911 44.3042 542.307 43.0529 542.362 41.6585C542.436 40.7793 542.364 40.1886 542.147 39.8865C541.982 39.5827 541.745 39.4361 541.436 39.4466Z" fill="#E9BD70"/>
</g>
<path d="M422.097 48.8513C422.045 50.3487 422.007 52.2582 421.983 54.5799C421.957 56.8501 421.983 59.1442 422.062 61.4624C422.138 63.6775 422.258 65.7106 422.424 67.5616C422.591 69.4126 422.817 70.7716 423.105 71.6386C423.119 72.0507 423.313 72.4567 423.688 72.8565C424.061 73.2049 424.254 73.5851 424.268 73.9972C424.289 74.6154 424.129 75.214 423.788 75.7929C423.498 76.3701 423.102 76.8735 422.601 77.3031C422.152 77.731 421.647 78.0576 421.087 78.2829C420.581 78.558 420.096 78.7035 419.632 78.7192C418.087 78.7718 417.033 77.3636 416.471 74.4945C415.911 71.677 415.531 67.3061 415.329 61.382C415.266 59.5274 415.23 57.6978 415.22 55.893C415.261 54.0865 415.308 52.4345 415.361 50.9371C415.107 51.0489 414.877 51.1083 414.67 51.1153C414.464 51.1223 414.258 51.1293 414.052 51.1363C413.177 51.1661 412.55 50.9553 412.174 50.504C411.847 49.9993 411.675 49.4637 411.655 48.897C411.615 47.7122 411.893 46.8002 412.491 46.161C413.139 45.52 414.255 44.9663 415.838 44.4999C415.988 42.8444 416.143 41.3435 416.304 39.9971C416.462 38.5992 416.65 37.2777 416.865 36.0326C417.081 34.7874 417.323 33.5672 417.591 32.3719C417.912 31.1748 418.308 29.9235 418.779 28.6181C417.816 29.1151 417.007 29.581 416.351 30.0159C415.747 30.449 415.218 30.828 414.765 31.1529C414.312 31.4777 413.909 31.7493 413.555 31.9676C413.2 32.1345 412.79 32.2257 412.326 32.2415C411.554 32.2678 410.874 32.0073 410.288 31.4599C409.703 30.9125 409.397 30.2782 409.373 29.557C409.341 28.6297 409.851 27.6841 410.901 26.72C412.754 25.1097 414.696 23.8317 416.727 22.8858C418.756 21.8885 420.819 21.122 422.915 20.5866C425.012 20.0511 427.063 19.6977 429.068 19.5263C431.123 19.3017 433.053 19.1587 434.856 19.0973C436.453 19.043 438.206 19.0349 440.115 19.0731C442.076 19.1096 443.916 19.3565 445.633 19.8138C447.349 20.2196 448.791 20.9184 449.959 21.9101C451.126 22.8503 451.74 24.2219 451.801 26.025C451.866 27.931 451.463 29.724 450.592 31.404C449.721 33.084 448.536 34.6458 447.038 36.0892C445.54 37.5327 443.781 38.8819 441.76 40.1368C439.791 41.39 437.69 42.5445 435.457 43.6004C433.224 44.6563 430.962 45.6358 428.672 46.5389C426.38 47.3904 424.189 48.1612 422.097 48.8513ZM440.723 25.5508C440.049 25.4706 439.094 25.4257 437.856 25.4163C436.616 25.3553 435.3 25.3485 433.909 25.3958C432.519 25.4431 431.129 25.5419 429.742 25.6923C428.355 25.8426 427.15 26.0641 426.129 26.3567C425.659 27.7136 425.262 28.9134 424.936 29.9559C424.61 30.9985 424.312 32.0917 424.042 33.2355C423.821 34.3261 423.606 35.5712 423.395 36.9708C423.185 38.3705 422.96 40.0801 422.719 42.0997C425.314 41.0831 427.933 39.9883 430.575 38.8154C433.217 37.6424 435.627 36.4516 437.803 35.243C439.978 33.9828 441.741 32.7366 443.091 31.5044C444.442 30.2723 445.097 29.0638 445.057 27.879C445.032 27.1578 444.602 26.6309 443.765 26.2983C442.929 25.9658 441.914 25.7166 440.723 25.5508ZM479.36 71.8137C478.498 72.2556 477.6 72.3636 476.664 72.1375C475.781 71.9613 475.09 71.3659 474.591 70.3514C474.15 69.4896 473.736 68.7043 473.351 67.9954C473.017 67.2847 472.683 66.5482 472.347 65.786C472.065 65.0736 471.783 64.3611 471.501 63.6487C471.27 62.9345 470.95 61.8623 470.541 60.4322L469.734 64.0182C469.503 64.7997 469.195 65.6096 468.811 66.4478C468.427 67.2861 467.964 68.0754 467.422 68.8159C466.93 69.5031 466.357 70.1157 465.705 70.6536C465.053 71.1916 464.395 71.5492 463.73 71.7265C462.089 71.9886 460.657 71.599 459.436 70.5575C458.264 69.4627 457.259 67.9754 456.421 66.0957C455.584 64.2159 454.919 62.0982 454.426 59.7426C453.933 57.3869 453.544 55.0535 453.26 52.7424C452.975 50.4312 452.773 48.2977 452.655 46.3419C452.537 44.3861 452.46 42.8931 452.425 41.8628C452.423 40.2641 452.799 39.194 453.554 38.6526C454.309 38.1112 455.075 37.8788 455.851 37.9556C456.267 38.0446 456.657 38.1345 457.021 38.2252C457.435 38.2627 457.775 38.4316 458.044 38.732C458.361 38.979 458.606 39.3575 458.778 39.8674C459 40.324 459.126 40.9902 459.156 41.8659L459.243 44.4159C459.325 46.8371 459.547 49.563 459.908 52.5936C460.269 55.6242 460.78 58.5207 461.441 61.2832C461.67 61.9459 461.977 62.6317 462.362 63.3407C462.745 63.9981 463.119 64.3722 463.483 64.463C464.166 63.3051 464.74 61.9962 465.206 60.5363C465.722 59.0231 466.134 57.4876 466.442 55.9299C466.8 54.3189 467.081 52.7364 467.286 51.1822C467.543 49.6262 467.776 48.1484 467.986 46.7487C468.212 45.8127 468.389 44.93 468.515 44.1005C468.64 43.2195 468.891 42.2568 469.268 41.2125C469.498 40.3795 469.915 39.7722 470.521 39.3906C471.177 38.9557 471.839 38.7268 472.509 38.704C473.385 38.6743 474.194 38.9562 474.936 39.5498C475.678 40.1435 476.069 41.0069 476.107 42.1403L476.31 48.0902C476.404 50.872 476.682 53.7249 477.142 56.649C477.601 59.5215 478.385 62.0994 479.494 64.3825C479.768 64.8374 480.016 65.3189 480.24 65.827C480.515 66.3334 480.71 66.7651 480.825 67.1222C481.327 68.2398 481.411 69.191 481.077 69.976C480.743 70.761 480.145 71.3744 479.283 71.8164L479.36 71.8137ZM498.391 18.638C498.463 20.7501 498.031 23.2146 497.095 26.0314C496.21 28.795 495.092 31.5664 493.742 34.3458C493.575 35.4861 493.409 36.678 493.245 37.9213C493.131 39.1114 492.964 40.2775 492.745 41.4196C492.355 43.599 492.042 45.7757 491.807 47.9499C491.621 50.0707 491.435 52.1916 491.25 54.3124C491.062 56.3818 491.004 58.4725 491.076 60.5846C491.136 62.3361 491.298 64.0841 491.564 65.8286C491.879 67.5198 492.351 69.2573 492.979 71.041C493.091 71.2951 493.149 71.4736 493.152 71.5767C493.157 71.7312 493.161 71.8342 493.163 71.8857C493.192 72.7615 492.931 73.4151 492.378 73.8465C491.827 74.3294 491.166 74.584 490.393 74.6102C489.208 74.6506 488.236 74.1163 487.476 73.0075C486.718 71.9502 486.132 70.655 485.719 69.1219C485.306 67.5887 485.02 65.9996 484.861 64.3547C484.702 62.7097 484.604 61.3463 484.567 60.2645C484.488 57.9463 484.54 55.6753 484.722 53.4514C484.902 51.176 485.135 48.9246 485.421 46.6972C484.596 46.7253 483.867 46.518 483.233 46.0754C482.599 45.6328 482.266 44.9221 482.232 43.9433C482.218 43.5312 482.259 43.1946 482.353 42.9335C483.222 41.202 484.067 39.4971 484.886 37.8188C485.704 36.0891 486.521 34.3078 487.335 32.475C487.419 31.9048 487.478 31.3613 487.512 30.8444C487.595 30.2742 487.678 29.6783 487.76 29.0566C487.878 27.9696 488.038 26.6232 488.242 25.0175C488.497 23.41 488.857 21.8763 489.323 20.4164C489.787 18.9049 490.414 17.62 491.203 16.5617C492.042 15.4501 493.131 14.8715 494.471 14.826C495.347 14.7962 496.18 15.0515 496.972 15.5918C497.814 16.0789 498.281 16.914 498.373 18.0971L498.391 18.638ZM501.051 75.0213C500.797 75.1331 500.543 75.2449 500.289 75.3567C500.034 75.4685 499.779 75.5288 499.521 75.5375C499.006 75.555 498.563 75.4154 498.192 75.1186C497.874 74.8715 497.605 74.5454 497.385 74.1403C497.166 73.7867 496.999 73.4056 496.882 72.997C496.818 72.6382 496.783 72.3557 496.776 72.1497C496.751 71.4284 496.882 70.7277 497.168 70.0475C497.453 69.3158 497.901 68.8622 498.514 68.6866C499.024 68.5145 499.462 68.4996 499.828 68.6419C500.245 68.7824 500.712 68.8439 501.227 68.8264C501.742 68.8089 502.154 68.7949 502.463 68.7844C502.822 68.7206 503.357 68.5219 504.067 68.1883C504.577 68.0162 505.34 67.7066 506.357 67.2594C507.373 66.8123 508.386 66.2621 509.395 65.6088C510.404 64.9556 511.258 64.2819 511.957 63.5877C512.705 62.8402 513.067 62.1316 513.045 61.4619C513.029 60.9983 512.68 60.5975 511.998 60.2597C511.316 59.9219 510.559 59.6382 509.726 59.4087C508.944 59.1774 508.243 59.0208 507.621 58.9388C506.997 58.8052 506.738 58.7625 506.843 58.8105C505.699 58.54 504.373 58.224 502.865 57.8627C501.409 57.4997 500.024 56.9795 498.712 56.3021C497.4 55.6247 496.261 54.7608 495.297 53.7106C494.385 52.6586 493.9 51.3083 493.844 49.6599C493.773 47.5478 494.38 45.6962 495.667 44.1052C496.952 42.4627 498.504 41.0947 500.324 40.0014C502.195 38.9062 504.152 38.0661 506.195 37.4808C508.238 36.8956 509.955 36.5793 511.346 36.532C512.17 36.5039 513.027 36.6811 513.917 37.0634C514.856 37.3925 515.343 38.0722 515.378 39.1024C515.47 41.7812 514.485 43.1556 512.424 43.2257C512.012 43.2397 511.648 43.149 511.332 42.9534C511.016 42.7579 510.703 42.6654 510.394 42.6759C509.158 42.718 507.902 42.9412 506.626 43.3456C505.402 43.7483 504.285 44.2504 503.274 44.8521C502.314 45.4521 501.537 46.0974 500.941 46.7882C500.346 47.4789 500.059 48.1333 500.08 48.7515C500.097 49.2666 500.346 49.7481 500.825 50.196C501.303 50.5924 501.908 50.9586 502.642 51.2946C503.374 51.5792 504.156 51.8362 504.989 52.0658C505.822 52.2953 506.602 52.4751 507.328 52.6051C508.939 52.9629 510.449 53.3757 511.857 53.8435C513.315 54.2581 514.597 54.7818 515.701 55.4147C516.804 55.9961 517.68 56.7141 518.327 57.5688C518.975 58.4236 519.32 59.4433 519.36 60.6282C519.43 62.6888 518.823 64.5403 517.537 66.1828C516.302 67.7721 514.725 69.1667 512.806 70.3666C510.939 71.5647 508.934 72.5354 506.794 73.2787C504.654 74.0735 502.74 74.6544 501.051 75.0213ZM532.776 70.4609C531.076 70.5187 529.467 70.2382 527.951 69.6193C526.487 69.0502 525.193 68.1401 524.067 66.8891C522.993 65.6362 522.166 64.0656 521.586 62.177C521.006 60.2885 520.749 58.0538 520.816 55.4728C520.89 53.0979 521.377 50.7347 522.277 48.3832C523.227 45.9785 524.443 43.8226 525.925 41.9155C527.406 39.9569 529.131 38.3767 531.102 37.1751C533.071 35.9219 535.188 35.2568 537.455 35.1797C538.691 35.1376 539.756 35.3593 540.649 35.8446C541.543 36.33 542.235 36.9769 542.727 37.7853C543.27 38.5921 543.662 39.507 543.903 40.5303C544.144 41.5536 544.257 42.5813 544.24 43.6133C544.163 45.8852 543.562 47.9428 542.439 49.7861C541.365 51.5762 540 53.1441 538.344 54.4898C536.739 55.8337 534.971 56.9253 533.04 57.7646C531.16 58.6022 529.376 59.2044 527.686 59.5713C528.16 61.3603 528.847 62.6005 529.747 63.2919C530.699 63.9816 531.715 64.308 532.797 64.2712C533.776 64.2379 534.776 64.075 535.798 63.7824C536.871 63.488 537.863 63.0932 538.774 62.598C539.686 62.1029 540.492 61.5339 541.192 60.8912C541.944 60.2468 542.513 59.5569 542.901 58.8217C543.24 58.1913 543.772 57.8895 544.495 57.9165C545.218 57.9435 545.869 58.1534 546.45 58.5462C547.082 58.9373 547.564 59.4625 547.896 60.1216C548.226 60.7293 548.222 61.3484 547.882 61.9788C547.153 63.2929 546.187 64.4604 544.984 65.4813C543.781 66.5021 542.495 67.371 541.127 68.088C539.759 68.805 538.334 69.3692 536.853 69.7807C535.423 70.1903 534.064 70.4171 532.776 70.4609ZM537.436 41.4466C536.354 41.4834 535.285 41.8808 534.227 42.6388C533.168 43.3453 532.169 44.2818 531.229 45.4484C530.34 46.6133 529.559 47.9034 528.885 49.3189C528.209 50.6828 527.714 52.0406 527.399 53.3922C528.475 53.2009 529.624 52.8524 530.844 52.3467C532.115 51.7877 533.303 51.1026 534.41 50.2913C535.517 49.4801 536.439 48.5204 537.175 47.4123C537.911 46.3042 538.307 45.0529 538.362 43.6585C538.436 42.7793 538.364 42.1886 538.147 41.8865C537.982 41.5827 537.745 41.4361 537.436 41.4466Z" fill="#636363"/>
<path d="M42.5468 28.4532L42.509 28.491C39.1617 25.8735 35.2732 24.5647 30.8436 24.5647C25.4828 24.5647 20.9147 26.4649 17.1395 30.2653C13.3643 34.0406 11.4767 38.596 11.4767 43.9316C11.4767 49.2673 13.3643 53.8353 17.1395 57.6357C20.9147 61.4109 25.4828 63.2985 30.8436 63.2985C35.2732 63.2985 39.1617 61.9898 42.509 59.3723L42.5468 59.4101C42.5719 59.3849 42.5971 59.3597 42.6223 59.3346C43.3773 58.5795 44.2834 58.202 45.3404 58.202C46.3975 58.202 47.3036 58.5795 48.0586 59.3346C48.8137 60.0896 49.1912 60.9957 49.1912 62.0527C49.1912 63.1098 48.8137 64.0158 48.0586 64.7709C48.0334 64.796 48.0083 64.8212 47.9831 64.8464L48.0209 64.8841C43.1382 68.9614 37.4125 71 30.8436 71C23.3686 71 16.9885 68.3573 11.7032 63.072C6.41788 57.7867 3.77522 51.4066 3.77522 43.9316C3.77522 36.4567 6.41788 30.0766 11.7032 24.7913C16.9885 19.5059 23.3686 16.8633 30.8436 16.8633C37.4125 16.8633 43.1382 18.9019 48.0209 22.9791L47.9831 23.0169C48.0083 23.0421 48.0334 23.0672 48.0586 23.0924C48.8137 23.8474 49.1912 24.7535 49.1912 25.8106C49.1912 26.8676 48.8137 27.7737 48.0586 28.5287C47.3036 29.2838 46.3975 29.6613 45.3404 29.6613C44.2834 29.6613 43.3773 29.2838 42.6223 28.5287C42.5971 28.5036 42.5719 28.4784 42.5468 28.4532ZM127.307 71C126.25 71 125.343 70.6225 124.588 69.8674C123.833 69.1124 123.456 68.0302 123.456 66.6207V52.0484C123.456 51.8219 123.468 51.5953 123.494 51.3688C123.343 48.6003 122.26 46.2219 120.247 44.2337C118.057 42.044 115.415 40.9492 112.319 40.9492H112.168C109.072 40.9492 106.43 42.044 104.24 44.2337C102.227 46.2219 101.144 48.6003 100.993 51.3688C101.018 51.5953 101.031 51.8219 101.031 52.0484V66.6207C101.031 68.0302 100.654 69.1124 99.8985 69.8674C99.1434 70.6225 98.2374 71 97.1803 71C96.1233 71 95.2172 70.6225 94.4622 69.8674C93.7071 69.1124 93.3296 68.005 93.3296 66.5452V51.9729C93.3799 46.8386 95.2172 42.4593 98.8414 38.8351C102.264 35.4122 106.631 33.5498 111.941 33.2478H112.545C117.856 33.5498 122.223 35.4122 125.646 38.8351C126.275 39.4643 126.841 40.1061 127.344 40.7605C127.848 40.1061 128.414 39.4643 129.043 38.8351C132.466 35.4122 136.833 33.5498 142.143 33.2478H142.747C148.058 33.5498 152.424 35.4122 155.847 38.8351C159.472 42.4593 161.309 46.8386 161.359 51.9729V66.5452C161.359 68.005 160.982 69.1124 160.227 69.8674C159.472 70.6225 158.565 71 157.508 71C156.451 71 155.545 70.6225 154.79 69.8674C154.035 69.1124 153.658 68.0302 153.658 66.6207V52.0484C153.658 51.8219 153.67 51.5953 153.695 51.3688C153.544 48.6003 152.462 46.2219 150.449 44.2337C148.259 42.044 145.616 40.9492 142.521 40.9492H142.37C139.274 40.9492 136.631 42.044 134.442 44.2337C132.428 46.2219 131.346 48.6003 131.195 51.3688C131.22 51.5953 131.233 51.8219 131.233 52.0484V66.6207C131.233 68.0302 130.855 69.1124 130.1 69.8674C129.345 70.6225 128.439 71 127.382 71H127.307ZM199.869 71C198.812 71 197.906 70.6225 197.151 69.8674C196.396 69.1124 196.019 68.0302 196.019 66.6207V52.0484C196.019 51.8219 196.031 51.5953 196.056 51.3688C195.905 48.6003 194.823 46.2219 192.81 44.2337C190.62 42.044 187.977 40.9492 184.882 40.9492H184.731C181.635 40.9492 178.992 42.044 176.803 44.2337C174.789 46.2219 173.707 48.6003 173.556 51.3688C173.581 51.5953 173.594 51.8219 173.594 52.0484V66.6207C173.594 68.0302 173.216 69.1124 172.461 69.8674C171.706 70.6225 170.8 71 169.743 71C168.686 71 167.78 70.6225 167.025 69.8674C166.27 69.1124 165.892 68.005 165.892 66.5452V51.9729C165.943 46.8386 167.78 42.4593 171.404 38.8351C174.827 35.4122 179.194 33.5498 184.504 33.2478H185.108C190.419 33.5498 194.785 35.4122 198.208 38.8351C198.838 39.4643 199.404 40.1061 199.907 40.7605C200.411 40.1061 200.977 39.4643 201.606 38.8351C205.029 35.4122 209.396 33.5498 214.706 33.2478H215.31C220.621 33.5498 224.987 35.4122 228.41 38.8351C232.034 42.4593 233.872 46.8386 233.922 51.9729V66.5452C233.922 68.005 233.544 69.1124 232.789 69.8674C232.034 70.6225 231.128 71 230.071 71C229.014 71 228.108 70.6225 227.353 69.8674C226.598 69.1124 226.221 68.0302 226.221 66.6207V52.0484C226.221 51.8219 226.233 51.5953 226.258 51.3688C226.107 48.6003 225.025 46.2219 223.012 44.2337C220.822 42.044 218.179 40.9492 215.084 40.9492H214.933C211.837 40.9492 209.194 42.044 207.005 44.2337C204.991 46.2219 203.909 48.6003 203.758 51.3688C203.783 51.5953 203.796 51.8219 203.796 52.0484V66.6207C203.796 68.0302 203.418 69.1124 202.663 69.8674C201.908 70.6225 201.002 71 199.945 71H199.869ZM257.067 71C251.757 70.698 247.39 68.8355 243.967 65.4127C240.343 61.7885 238.506 57.4092 238.455 52.2749V37.7025C238.455 36.2428 238.833 35.1354 239.588 34.3803C240.343 33.6253 241.249 33.2478 242.306 33.2478C243.363 33.2478 244.269 33.6253 245.024 34.3803C245.779 35.1354 246.157 36.2176 246.157 37.627V52.1994C246.157 52.4259 246.144 52.6524 246.119 52.8789C246.27 55.6474 247.352 58.0258 249.366 60.0141C251.555 62.2037 254.198 63.2985 257.294 63.2985H257.445C260.54 63.2985 263.183 62.2037 265.373 60.0141C267.386 58.0258 268.468 55.6474 268.619 52.8789C268.594 52.6524 268.582 52.4259 268.582 52.1994V37.627C268.582 36.2176 268.959 35.1354 269.714 34.3803C270.469 33.6253 271.375 33.2478 272.432 33.2478C273.489 33.2478 274.395 33.6253 275.15 34.3803C275.905 35.1354 276.283 36.2428 276.283 37.7025V52.2749C276.233 57.4092 274.395 61.7885 270.771 65.4127C267.348 68.8355 262.982 70.698 257.671 71H257.067ZM299.957 33.2478C305.267 33.5498 309.634 35.4122 313.057 38.8351C316.681 42.4593 318.518 46.8386 318.569 51.9729V66.5452C318.569 68.005 318.191 69.1124 317.436 69.8674C316.681 70.6225 315.775 71 314.718 71C313.661 71 312.755 70.6225 312 69.8674C311.245 69.1124 310.867 68.0302 310.867 66.6207V52.0484C310.867 51.8219 310.88 51.5953 310.905 51.3688C310.754 48.6003 309.672 46.2219 307.658 44.2337C305.468 42.044 302.826 40.9492 299.73 40.9492H299.579C296.483 40.9492 293.841 42.044 291.651 44.2337C289.638 46.2219 288.555 48.6003 288.404 51.3688C288.43 51.5953 288.442 51.8219 288.442 52.0484V66.6207C288.442 68.0302 288.065 69.1124 287.31 69.8674C286.555 70.6225 285.649 71 284.591 71C283.534 71 282.628 70.6225 281.873 69.8674C281.118 69.1124 280.741 68.005 280.741 66.5452V51.9729C280.791 46.8386 282.628 42.4593 286.253 38.8351C289.675 35.4122 294.042 33.5498 299.353 33.2478H299.957ZM326.877 29.548C325.82 29.548 324.914 29.1705 324.159 28.4155C323.404 27.6604 323.026 26.7544 323.026 25.6973C323.026 24.6402 323.404 23.7342 324.159 22.9791C324.914 22.2241 325.82 21.8466 326.877 21.8466C327.934 21.8466 328.84 22.2241 329.595 22.9791C330.35 23.7342 330.728 24.6402 330.728 25.6973C330.728 26.7544 330.35 27.6604 329.595 28.4155C328.84 29.1705 327.934 29.548 326.877 29.548ZM326.877 71C325.82 71 324.914 70.6225 324.159 69.8674C323.404 69.1124 323.026 68.2063 323.026 67.1493V36.9475C323.026 35.8904 323.404 34.9844 324.159 34.2293C324.914 33.4743 325.82 33.0967 326.877 33.0967C327.934 33.0967 328.84 33.4743 329.595 34.2293C330.35 34.9844 330.728 35.8904 330.728 36.9475V67.1493C330.728 68.2063 330.35 69.1124 329.595 69.8674C328.84 70.6225 327.934 71 326.877 71ZM344.095 33.1723V25.9993C344.095 24.9423 344.473 24.0362 345.228 23.2812C345.983 22.5261 346.889 22.1486 347.946 22.1486C349.003 22.1486 349.909 22.5261 350.664 23.2812C351.419 24.0362 351.797 24.9423 351.797 25.9993V33.1723H355.987C357.044 33.1723 357.95 33.5498 358.705 34.3048C359.46 35.0599 359.838 35.9659 359.838 37.023C359.838 38.08 359.46 38.9861 358.705 39.7411C357.95 40.4962 357.044 40.8737 355.987 40.8737H351.797V67.1493C351.797 68.2063 351.419 69.1124 350.664 69.8674C349.909 70.6225 349.003 71 347.946 71C346.889 71 345.983 70.6225 345.228 69.8674C344.473 69.1124 344.095 68.2063 344.095 67.1493V40.8737H339.754C338.697 40.8737 337.79 40.4962 337.035 39.7411C336.28 38.9861 335.903 38.08 335.903 37.023C335.903 35.9659 336.28 35.0599 337.035 34.3048C337.79 33.5498 338.697 33.1723 339.754 33.1723H344.095ZM364.182 38.8351C363.88 38.2814 363.729 37.6774 363.729 37.023C363.729 35.9659 364.094 35.0724 364.824 34.3426C365.554 33.6127 366.447 33.2478 367.504 33.2478C368.536 33.2478 369.43 33.6127 370.185 34.3426C370.588 34.7453 370.877 35.2109 371.053 35.7394L382.605 58.806L394.12 35.7394C394.296 35.236 394.598 34.7704 395.026 34.3426C395.756 33.6127 396.649 33.2478 397.706 33.2478C398.738 33.2478 399.619 33.6127 400.349 34.3426C401.104 35.0724 401.482 35.9659 401.482 37.023C401.482 37.627 401.356 38.1807 401.104 38.6841L378.755 83.5715C378.503 84.0749 378.163 84.5405 377.735 84.9683C376.98 85.7234 376.087 86.1009 375.055 86.1009C373.998 86.1009 373.104 85.7234 372.375 84.9683C371.645 84.2385 371.28 83.3576 371.28 82.3257C371.28 81.5203 371.443 80.7904 371.77 80.136L378.377 67.2248L364.182 38.8351Z" fill="#888888"/>
<path d="M69.8824 33.3233C75.0922 33.3233 79.5344 35.1605 83.209 38.8351C86.8835 42.5096 88.7208 46.9518 88.7208 52.1616C88.7208 57.3714 86.8835 61.8136 83.209 65.4882C79.5344 69.1627 75.0922 71 69.8824 71C64.6726 71 60.2304 69.1627 56.5559 65.4882C52.8813 61.8136 51.0441 57.3714 51.0441 52.1616C51.0441 46.9518 52.8813 42.5096 56.5559 38.8351C60.2304 35.1605 64.6726 33.3233 69.8824 33.3233ZM69.8824 40.9492C66.7867 40.9492 64.1441 42.044 61.9545 44.2337C59.7648 46.3981 58.67 49.0282 58.67 52.1239C58.67 55.2196 59.7648 57.8622 61.9545 60.0518C64.1441 62.2415 66.7867 63.3363 69.8824 63.3363C72.9781 63.3363 75.6082 62.2415 77.7726 60.0518C79.9623 57.8622 81.0571 55.2196 81.0571 52.1239C81.0571 49.0282 79.9623 46.3981 77.7726 44.2337C75.6082 42.044 72.9781 40.9492 69.8824 40.9492Z" fill="#9C5789"/>
<defs>
<filter id="filter0_d_79_8" x="406.971" y="9.04736" width="151.873" height="77.9639" filterUnits="userSpaceOnUse" color-interpolation-filters="sRGB">
<feFlood flood-opacity="0" result="BackgroundImageFix"/>
<feColorMatrix in="SourceAlpha" type="matrix" values="0 0 0 0 0 0 0 0 0 0 0 0 0 0 0 0 0 0 127 0" result="hardAlpha"/>
<feOffset dy="4"/>
<feGaussianBlur stdDeviation="3"/>
<feComposite in2="hardAlpha" operator="out"/>
<feColorMatrix type="matrix" values="0 0 0 0 0 0 0 0 0 0 0 0 0 0 0 0 0 0 0.4 0"/>
<feBlend mode="normal" in2="BackgroundImageFix" result="effect1_dropShadow_79_8"/>
<feBlend mode="normal" in="SourceGraphic" in2="effect1_dropShadow_79_8" result="shape"/>
</filter>
</defs>
</svg>
